<svg id="visual" viewBox="0 0 900 600" width="900" height="600" xmlns="http://www.w3.org/2000/svg" xmlns:xlink="http://www.w3.org/1999/xlink" version="1.1"><rect x="0" y="0" width="900" height="600" fill="#ddffee"></rect><path d="M0 410L21.5 402.5C43 395 86 380 128.8 371.3C171.7 362.7 214.3 360.3 257.2 366.8C300 373.3 343 388.7 385.8 403.8C428.7 419 471.3 434 514.2 430C557 426 600 403 642.8 396C685.7 389 728.3 398 771.2 403C814 408 857 409 878.5 409.5L900 410L900 601L878.5 601C857 601 814 601 771.2 601C728.3 601 685.7 601 642.8 601C600 601 557 601 514.2 601C471.3 601 428.7 601 385.8 601C343 601 300 601 257.2 601C214.3 601 171.7 601 128.8 601C86 601 43 601 21.5 601L0 601Z" fill="#a7f3d0"></path><path d="M0 432L21.5 427C43 422 86 412 128.8 417.8C171.7 423.7 214.3 445.3 257.2 458C300 470.7 343 474.3 385.8 476.5C428.7 478.7 471.3 479.3 514.2 474.3C557 469.3 600 458.7 642.8 452.7C685.7 446.7 728.3 445.3 771.2 442.8C814 440.3 857 436.7 878.5 434.8L900 433L900 601L878.5 601C857 601 814 601 771.2 601C728.3 601 685.7 601 642.8 601C600 601 557 601 514.2 601C471.3 601 428.7 601 385.8 601C343 601 300 601 257.2 601C214.3 601 171.7 601 128.8 601C86 601 43 601 21.5 601L0 601Z" fill="#83d3b0"></path><path d="M0 499L21.5 496.2C43 493.3 86 487.7 128.8 480.5C171.7 473.3 214.3 464.7 257.2 457.5C300 450.3 343 444.7 385.8 443C428.7 441.3 471.3 443.7 514.2 444.7C557 445.7 600 445.3 642.8 447.8C685.7 450.3 728.3 455.7 771.2 459.5C814 463.3 857 465.7 878.5 466.8L900 468L900 601L878.5 601C857 601 814 601 771.2 601C728.3 601 685.7 601 642.8 601C600 601 557 601 514.2 601C471.3 601 428.7 601 385.8 601C343 601 300 601 257.2 601C214.3 601 171.7 601 128.8 601C86 601 43 601 21.5 601L0 601Z" fill="#60b491"></path><path d="M0 518L21.5 514.8C43 511.7 86 505.3 128.8 499.7C171.7 494 214.3 489 257.2 491.2C300 493.3 343 502.7 385.8 502.7C428.7 502.7 471.3 493.3 514.2 489.2C557 485 600 486 642.8 491.2C685.7 496.3 728.3 505.7 771.2 508.8C814 512 857 509 878.5 507.5L900 506L900 601L878.5 601C857 601 814 601 771.2 601C728.3 601 685.7 601 642.8 601C600 601 557 601 514.2 601C471.3 601 428.7 601 385.8 601C343 601 300 601 257.2 601C214.3 601 171.7 601 128.8 601C86 601 43 601 21.5 601L0 601Z" fill="#3b9673"></path><path d="M0 538L21.5 543.2C43 548.3 86 558.7 128.8 556.5C171.7 554.3 214.3 539.7 257.2 535.5C300 531.3 343 537.7 385.8 538.3C428.7 539 471.3 534 514.2 532.2C557 530.3 600 531.7 642.8 538.5C685.7 545.3 728.3 557.7 771.2 559.8C814 562 857 554 878.5 550L900 546L900 601L878.5 601C857 601 814 601 771.2 601C728.3 601 685.7 601 642.8 601C600 601 557 601 514.2 601C471.3 601 428.7 601 385.8 601C343 601 300 601 257.2 601C214.3 601 171.7 601 128.8 601C86 601 43 601 21.5 601L0 601Z" fill="#047857"></path></svg>