<?xml version="1.0" encoding="utf-8"?>
<!-- Generator: Adobe Illustrator 27.5.0, SVG Export Plug-In . SVG Version: 6.00 Build 0)  -->
<svg version="1.1" xmlns="http://www.w3.org/2000/svg" xmlns:xlink="http://www.w3.org/1999/xlink" x="0px" y="0px"
	 viewBox="0 0 750 500" style="enable-background:new 0 0 750 500;" xml:space="preserve">
<g id="Background_Simple">
	<g>
		<path style="fill:#92E3A9;" d="M545.681,57.184c0,0-458.007,95.382-477.77,141.784c-10.102,23.717,0,229.433,67.885,233.729
			c49.361,3.124,382.018,27.739,543.936-12.03c48.98-12.03-16.327-282.709-41.246-317.081
			C613.566,69.214,575.757,50.309,545.681,57.184z"/>
		<path style="opacity:0.7;fill:#FFFFFF;" d="M545.681,57.184c0,0-458.007,95.382-477.77,141.784
			c-10.102,23.717,0,229.433,67.885,233.729c49.361,3.124,382.018,27.739,543.936-12.03c48.98-12.03-16.327-282.709-41.246-317.081
			C613.566,69.214,575.757,50.309,545.681,57.184z"/>
	</g>
</g>
<g id="Plant">
	<g>
		<g>
			<g>
				<path style="fill:#263238;" d="M93.951,285.234l0.002-0.005c0.017-0.043-0.003-0.092-0.046-0.11
					c-0.044-0.019-0.094,0.001-0.113,0.045c-2.606,6.018-4.438,12.334-5.967,18.706c-1.476,6.389-2.545,12.871-3.293,19.393
					l-0.466,4.901c-0.072,0.817-0.161,1.634-0.22,2.453l-0.134,2.459c-0.071,1.64-0.171,3.28-0.218,4.922l0.045,4.926l0.055,2.462
					c0.036,0.82,0.095,1.639,0.151,2.458c0.124,1.637,0.224,3.275,0.374,4.908c0.314,3.265,0.805,6.514,1.31,9.748
					c0.006,0.041,0.042,0.073,0.086,0.073c0.048,0,0.086-0.039,0.086-0.087v-0.005c-0.009-1.642-0.078-3.275-0.115-4.909
					c-0.047-1.633-0.189-3.258-0.167-4.891c0.008-1.633-0.035-3.261-0.053-4.889l-0.046-2.441l0.043-2.442l0.022-4.881l0.132-4.878
					l0.051-2.441c0.031-0.813,0.092-1.625,0.137-2.437l0.3-4.876c0.571-6.488,1.462-12.952,2.762-19.342
					C89.966,297.671,91.57,291.313,93.951,285.234z"/>
				<path style="fill:#263238;" d="M94.651,310.758c0.012-0.044-0.01-0.093-0.054-0.108c-0.045-0.015-0.094,0.008-0.11,0.054
					c-1.405,4.056-2.526,8.204-3.475,12.396c-0.906,4.199-1.617,8.454-2.051,12.741c-0.434,4.271-0.911,8.547-0.97,12.842
					c-0.066,4.293,0.002,8.59,0.456,12.879c0.005,0.04,0.036,0.073,0.077,0.077c0.048,0.005,0.09-0.029,0.095-0.077
					c0.496-4.276,0.799-8.542,1.095-12.806c0.303-4.262,0.343-8.537,0.621-12.801c0.258-4.251,0.791-8.484,1.523-12.69
					C92.576,319.059,93.47,314.868,94.651,310.758z"/>
				<path style="fill:#263238;" d="M108.801,319.736c-0.025-0.04-0.079-0.052-0.119-0.027c-3.542,2.243-6.701,5.067-9.461,8.249
					c-1.357,1.615-2.618,3.306-3.699,5.144l-0.76,1.435l-0.595,1.491c-0.214,0.494-0.365,1.003-0.519,1.511
					c-0.153,0.508-0.324,1.015-0.461,1.527c-1.063,4.101-1.767,8.28-1.957,12.481c-0.171,4.198-0.091,8.403,0.469,12.571
					c0.006,0.039,0.039,0.072,0.08,0.075c0.048,0.004,0.089-0.032,0.093-0.08l1.078-12.444c0.43-4.114,0.693-8.252,1.576-12.27
					c0.112-0.5,0.256-0.99,0.383-1.486c0.129-0.496,0.253-0.993,0.437-1.465l0.505-1.439l0.65-1.358
					c0.958-1.798,2.13-3.517,3.39-5.147c2.527-3.261,5.5-6.234,8.884-8.647l0.005-0.003
					C108.815,319.826,108.825,319.775,108.801,319.736z"/>
				<path style="fill:#263238;" d="M101.952,335.724c-1.928,1.245-3.218,3.203-4.302,5.172c-1.034,2.013-1.848,4.147-2.411,6.336
					c-0.169,0.542-0.303,1.091-0.421,1.644l-0.39,1.655c-0.199,1.111-0.355,2.234-0.418,3.36c-0.015,1.129-0.047,2.257,0.029,3.382
					c0.094,1.125,0.222,2.248,0.443,3.361c0.008,0.032,0.034,0.062,0.069,0.069c0.048,0.01,0.094-0.022,0.104-0.069
					c0.273-1.11,0.451-2.211,0.596-3.308c0.175-1.095,0.345-2.184,0.476-3.273c0.16-1.085,0.303-2.167,0.388-3.26
					c0.152-1.078,0.231-2.181,0.468-3.247c0.379-2.157,1.002-4.263,1.845-6.277c0.839-1.997,1.932-3.988,3.612-5.395l0.013-0.011
					c0.033-0.027,0.041-0.075,0.017-0.112C102.045,335.71,101.992,335.698,101.952,335.724z"/>
				<path style="fill:#263238;" d="M82.108,348.189c-0.465-5.524-1.377-10.993-2.238-16.46c-0.864-5.467-1.816-10.918-2.816-16.358
					c-1.035-5.434-2.118-10.858-3.29-16.263c-0.01-0.045-0.054-0.075-0.1-0.067c-0.047,0.009-0.078,0.053-0.069,0.1
					c0.945,5.445,1.801,10.907,2.608,16.372c0.829,5.462,1.61,10.931,2.301,16.409c0.675,5.481,1.201,10.975,1.888,16.446
					l2.021,16.445c0.005,0.041,0.039,0.074,0.082,0.076c0.048,0.002,0.088-0.035,0.09-0.082c0.063-1.386,0.065-2.771,0.099-4.16
					c0.012-1.388-0.056-2.771-0.081-4.158C82.552,353.714,82.316,350.953,82.108,348.189z"/>
				<path style="fill:#263238;" d="M78.795,348.109c-0.295-2.188-0.697-4.363-1.115-6.532l-0.775-3.225
					c-0.254-1.075-0.495-2.153-0.81-3.214c-1.102-4.279-2.511-8.486-4.222-12.562l-0.662-1.52l-0.736-1.487
					c-0.468-1.001-1.034-1.956-1.571-2.921c-1.155-1.881-2.354-3.761-3.987-5.286c-0.033-0.031-0.085-0.031-0.118,0.001
					c-0.034,0.033-0.035,0.087-0.002,0.122l0.008,0.009c1.51,1.565,2.61,3.497,3.647,5.407c0.48,0.982,0.988,1.948,1.399,2.962
					l0.649,1.504l0.575,1.535c1.531,4.09,2.758,8.293,3.681,12.566c0.503,2.125,0.837,4.292,1.249,6.435l0.517,3.238
					c0.187,1.077,0.418,2.146,0.569,3.229c0.345,2.16,0.742,4.314,1.119,6.475c0.335,2.167,0.731,4.33,1.187,6.495
					c0.008,0.039,0.043,0.071,0.085,0.071c0.048,0,0.087-0.038,0.087-0.086c0.01-2.207-0.042-4.415-0.154-6.62
					C79.285,352.499,79.025,350.306,78.795,348.109z"/>
				<path style="fill:#263238;" d="M74.224,348.391c-1.024-2.898-2.208-5.736-3.498-8.518c-1.324-2.767-2.754-5.481-4.4-8.066
					c-0.025-0.036-0.077-0.051-0.117-0.028c-0.041,0.024-0.055,0.077-0.03,0.118c1.438,2.685,2.654,5.486,3.755,8.318
					c1.122,2.825,2.132,5.692,2.979,8.605c0.864,2.909,1.483,5.875,2.257,8.798c0.814,2.92,1.472,5.871,2.37,8.828
					c0.011,0.035,0.044,0.064,0.083,0.064c0.048,0,0.087-0.038,0.088-0.086c0.043-3.086-0.259-6.17-0.859-9.191
					C76.31,354.196,75.241,351.287,74.224,348.391z"/>
				<path style="fill:#263238;" d="M74.034,358.046c-0.524-1.815-1.417-3.506-2.432-5.099c-0.997-1.601-2.153-3.116-3.54-4.398
					c-0.714-0.618-1.444-1.214-2.252-1.698c-0.795-0.497-1.639-0.917-2.554-1.155c-0.04-0.01-0.083,0.009-0.1,0.048
					c-0.019,0.043,0,0.094,0.044,0.113l0.01,0.005c1.655,0.736,3.054,1.956,4.236,3.291c1.198,1.337,2.154,2.871,2.951,4.469
					c0.838,1.587,1.271,3.341,2.001,4.975c0.322,0.838,0.641,1.681,1.013,2.518c0.316,0.854,0.666,1.705,1.111,2.552l0.002,0.005
					c0.014,0.027,0.042,0.046,0.075,0.047c0.049,0.002,0.09-0.036,0.092-0.085c0.039-0.945-0.016-1.886-0.105-2.824
					C74.452,359.883,74.256,358.962,74.034,358.046z"/>
			</g>
			<path style="fill:#92E3A9;" d="M74.376,307.017c0,0-9.052-2.089-11.141-11.837c-2.089-9.748,4.642-5.571-1.393-20.89
				c-6.035-15.319-4.642-18.801-2.553-23.211c2.089-4.41,3.25-3.017,5.106,2.785c1.857,5.802,8.588,14.855,11.141,31.799
				C78.089,302.607,74.376,307.017,74.376,307.017z"/>
			<path style="fill:#92E3A9;" d="M92.248,290.538c0,0-6.035-2.089-6.267-13.462c-0.232-11.373,4.41-9.052,5.106-23.21
				c0.696-14.159,1.625-24.139,4.178-24.371c2.553-0.232,9.284,6.963,11.605,22.746c2.321,15.783-3.017,26.228-7.659,30.87
				C94.569,287.752,92.248,290.538,92.248,290.538z"/>
			<path style="fill:#92E3A9;" d="M71.126,320.711c0,0-1.393-8.356-4.178-12.301c-2.785-3.946-8.82-7.428-12.766-15.087
				c-3.946-7.659-8.356-11.373-8.124-0.464c0.232,10.909,5.106,16.48,11.141,20.193C63.235,316.765,71.126,320.711,71.126,320.711z"
				/>
			<path style="fill:#92E3A9;" d="M68.573,335.102c0,0-5.57-10.677-13.694-18.569c-8.124-7.892-14.623-11.837-12.302-7.892
				c2.321,3.946,5.106,3.714,9.052,10.677c3.946,6.963,2.785,12.069,8.356,16.015S68.573,335.102,68.573,335.102z"/>
			<path style="fill:#92E3A9;" d="M67.877,348.796c-0.232-0.696-0.464-5.803-8.356-9.98c-7.892-4.178-15.319-2.553-14.391-0.464
				c0.928,2.089,5.803,5.571,10.677,7.66C60.681,348.1,67.877,348.796,67.877,348.796z"/>
			<path style="fill:#92E3A9;" d="M91.784,321.175c0,0-3.482-4.41-1.625-13.694c1.857-9.284,6.035-6.963,10.677-11.837
				c4.642-4.874,3.714-5.571,8.356-10.677c4.642-5.106,8.82-7.892,10.677-5.803c1.857,2.089-0.928,8.588-3.714,12.301
				c-2.785,3.714-7.195,5.571-9.284,10.213c-2.089,4.642-1.16,12.07-6.499,15.551C95.033,320.711,91.784,321.175,91.784,321.175z"/>
			<path style="fill:#92E3A9;" d="M103.389,323.729c0,0,8.356-9.516,14.391-16.479c6.035-6.963,8.356-12.302,8.588-7.66
				c0.232,4.642,2.089,8.356-2.785,14.391C118.708,320.015,103.389,323.729,103.389,323.729z"/>
			<path style="fill:#92E3A9;" d="M98.979,339.048c0,0-0.232-3.714,12.998-12.302c13.23-8.588,18.801-10.213,17.408-6.731
				c-1.393,3.482-7.195,6.963-13.462,13.23C109.656,339.512,98.979,339.048,98.979,339.048z"/>
			<path style="fill:none;stroke:#263238;stroke-linecap:round;stroke-linejoin:round;stroke-miterlimit:10;" d="M74.928,306.028
				c0,0-3.105-16.651-6.355-28.488c-3.249-11.837-5.338-19.033-5.338-19.033"/>
			<path style="fill:none;stroke:#263238;stroke-linecap:round;stroke-linejoin:round;stroke-miterlimit:10;" d="M91.713,290.713
				c0,0,5.641-18.047,7.498-28.956c1.857-10.909-0.232-19.033-1.161-23.907"/>
			<path style="fill:none;stroke:#263238;stroke-linecap:round;stroke-linejoin:round;stroke-miterlimit:10;" d="M70.395,320.363
				c0,0-3.446-6.15-8.552-12.185c-5.106-6.035-9.052-9.284-11.373-15.087"/>
			<path style="fill:none;stroke:#263238;stroke-linecap:round;stroke-linejoin:round;stroke-miterlimit:10;" d="M91.784,321.175
				c0,0,1.857-11.141,6.267-16.944c4.41-5.802,13.23-14.855,16.712-20.657"/>
			<path style="fill:none;stroke:#263238;stroke-linecap:round;stroke-linejoin:round;stroke-miterlimit:10;" d="M67.331,348.543
				c0,0-7.81-5.085-13.381-7.87"/>
		</g>
		<g>
			<g>
				<path style="fill:#263238;stroke:#263238;stroke-linecap:round;stroke-linejoin:round;stroke-miterlimit:10;" d="
					M112.052,395.327c-0.522-14.085-16.171-23.474-16.171-23.474h-9.9h-4.184h-9.9c0,0-15.649,9.39-16.171,23.474
					c-0.522,14.084,17.736,65.728,17.736,65.728h8.335h4.184h8.335C94.316,461.055,112.574,409.411,112.052,395.327z"/>
				<polygon style="fill:#263238;stroke:#263238;stroke-linecap:round;stroke-linejoin:round;stroke-miterlimit:10;" points="
					98.969,358.004 68.365,358.004 71.896,371.852 95.438,371.852 				"/>
			</g>
		</g>
	</g>
</g>
<g id="Paper_Plane_2">
	<g>
		<g>
			<g>
				<path style="fill:none;stroke:#263238;stroke-linecap:round;stroke-linejoin:round;" d="M591.469,121.106
					c0,0-0.479,0.737-1.411,2.058"/>
				<path style="fill:none;stroke:#263238;stroke-linecap:round;stroke-linejoin:round;stroke-dasharray:5.03,5.03;" d="
					M587.085,127.216c-12.216,16.096-49.098,58.678-99.748,62.296c-62.573,4.47-122.167-94.605-184.741-123.657
					c-61.414-28.514-140.05-17.561-207.737,39.198"/>
				<path style="fill:none;stroke:#263238;stroke-linecap:round;stroke-linejoin:round;" d="M92.932,106.683
					c-0.632,0.54-1.264,1.084-1.895,1.633"/>
			</g>
		</g>
		<g>
			<polygon style="fill:#FFFFFF;stroke:#263238;stroke-linecap:round;stroke-linejoin:round;stroke-miterlimit:10;" points="
				616.144,84.681 568.882,101.867 589.505,109.601 			"/>
			<polygon style="fill:#FFFFFF;stroke:#263238;stroke-linecap:round;stroke-linejoin:round;stroke-miterlimit:10;" points="
				589.505,109.601 591.469,121.106 594.991,111.421 616.144,84.681 			"/>
			<polygon style="fill:#FFFFFF;stroke:#263238;stroke-linecap:round;stroke-linejoin:round;stroke-miterlimit:10;" points="
				591.469,121.106 616.144,84.681 594.991,111.421 			"/>
			<polygon style="fill:#FFFFFF;stroke:#263238;stroke-linecap:round;stroke-linejoin:round;stroke-miterlimit:10;" points="
				616.144,84.681 594.991,111.421 614.36,120.225 			"/>
		</g>
	</g>
</g>
<g id="Paper_Plane_1">
	<g>
		
			<path style="fill:none;stroke:#263238;stroke-linecap:round;stroke-linejoin:round;stroke-miterlimit:10;stroke-dasharray:5,5;" d="
			M100.211,205.183c0,0,26.582,80.193,88.839,126.553c62.257,46.361,215.766,69.408,285.518,42.217
			c69.752-27.19,171.284-63.22,221.351-42.418c50.066,20.802,38.645,60.402,15.894,73.837
			c-22.75,13.435-34.607,17.186-105.182-16.515c-70.575-33.701-155.137-95.281-155.137-95.281"/>
		<g>
			<polygon style="fill:#FFFFFF;stroke:#263238;stroke-linecap:round;stroke-linejoin:round;stroke-miterlimit:10;" points="
				80.759,158.782 124.378,183.81 102.735,187.897 			"/>
			<polygon style="fill:#FFFFFF;stroke:#263238;stroke-linecap:round;stroke-linejoin:round;stroke-miterlimit:10;" points="
				102.735,187.897 98.83,198.895 97.019,188.75 80.759,158.782 			"/>
			<polygon style="fill:#FFFFFF;stroke:#263238;stroke-linecap:round;stroke-linejoin:round;stroke-miterlimit:10;" points="
				98.83,198.895 80.759,158.782 97.019,188.75 			"/>
			<polygon style="fill:#FFFFFF;stroke:#263238;stroke-linecap:round;stroke-linejoin:round;stroke-miterlimit:10;" points="
				80.759,158.782 97.019,188.75 76.428,194.106 			"/>
		</g>
	</g>
</g>
<g id="Stars_2">
	<g style="opacity:0.3;">
		<polygon style="fill:none;stroke:#263238;stroke-linecap:round;stroke-linejoin:round;stroke-miterlimit:10;" points="
			446.101,65.714 448.021,71.624 454.236,71.624 449.208,75.277 451.129,81.188 446.101,77.535 441.073,81.188 442.994,75.277 
			437.966,71.624 444.181,71.624 		"/>
		<polygon style="fill:none;stroke:#263238;stroke-linecap:round;stroke-linejoin:round;stroke-miterlimit:10;" points="
			467.718,65.714 469.639,71.624 475.853,71.624 470.826,75.277 472.746,81.188 467.718,77.535 462.69,81.188 464.611,75.277 
			459.583,71.624 465.798,71.624 		"/>
		<polygon style="fill:none;stroke:#263238;stroke-linecap:round;stroke-linejoin:round;stroke-miterlimit:10;" points="
			489.335,65.714 491.256,71.624 497.47,71.624 492.443,75.277 494.363,81.188 489.335,77.535 484.307,81.188 486.228,75.277 
			481.2,71.624 487.415,71.624 		"/>
		<polygon style="fill:none;stroke:#263238;stroke-linecap:round;stroke-linejoin:round;stroke-miterlimit:10;" points="
			510.952,65.714 512.873,71.624 519.088,71.624 514.06,75.277 515.98,81.188 510.952,77.535 505.925,81.188 507.845,75.277 
			502.817,71.624 509.032,71.624 		"/>
		<polygon style="fill:none;stroke:#263238;stroke-linecap:round;stroke-linejoin:round;stroke-miterlimit:10;" points="
			532.57,65.714 534.49,71.624 540.705,71.624 535.677,75.277 537.597,81.188 532.57,77.535 527.542,81.188 529.462,75.277 
			524.435,71.624 530.649,71.624 		"/>
	</g>
	<g style="opacity:0.3;">
		<polygon style="fill:none;stroke:#263238;stroke-linecap:round;stroke-linejoin:round;stroke-miterlimit:10;" points="
			439.396,410.174 441.317,416.085 447.531,416.085 442.503,419.737 444.424,425.648 439.396,421.995 434.368,425.648 
			436.289,419.737 431.261,416.085 437.476,416.085 		"/>
		<polygon style="fill:none;stroke:#263238;stroke-linecap:round;stroke-linejoin:round;stroke-miterlimit:10;" points="
			461.013,410.174 462.934,416.085 469.148,416.085 464.121,419.737 466.041,425.648 461.013,421.995 455.986,425.648 
			457.906,419.737 452.878,416.085 459.093,416.085 		"/>
		<polygon style="fill:none;stroke:#263238;stroke-linecap:round;stroke-linejoin:round;stroke-miterlimit:10;" points="
			482.63,410.174 484.551,416.085 490.766,416.085 485.738,419.737 487.658,425.648 482.63,421.995 477.603,425.648 
			479.523,419.737 474.495,416.085 480.71,416.085 		"/>
		<polygon style="fill:none;stroke:#263238;stroke-linecap:round;stroke-linejoin:round;stroke-miterlimit:10;" points="
			504.248,410.174 506.168,416.085 512.383,416.085 507.355,419.737 509.275,425.648 504.248,421.995 499.22,425.648 
			501.14,419.737 496.112,416.085 502.327,416.085 		"/>
		<polygon style="fill:none;stroke:#263238;stroke-linecap:round;stroke-linejoin:round;stroke-miterlimit:10;" points="
			525.865,410.174 527.785,416.085 534,416.085 528.972,419.737 530.893,425.648 525.865,421.995 520.837,425.648 522.758,419.737 
			517.73,416.085 523.944,416.085 		"/>
	</g>
	<g style="opacity:0.3;">
		<polygon style="fill:none;stroke:#263238;stroke-linecap:round;stroke-linejoin:round;stroke-miterlimit:10;" points="
			71.469,130.248 73.39,136.158 79.604,136.158 74.576,139.811 76.497,145.722 71.469,142.069 66.441,145.722 68.362,139.811 
			63.334,136.158 69.549,136.158 		"/>
		<polygon style="fill:none;stroke:#263238;stroke-linecap:round;stroke-linejoin:round;stroke-miterlimit:10;" points="
			93.086,130.248 95.007,136.158 101.221,136.158 96.194,139.811 98.114,145.722 93.086,142.069 88.059,145.722 89.979,139.811 
			84.951,136.158 91.166,136.158 		"/>
		<polygon style="fill:none;stroke:#263238;stroke-linecap:round;stroke-linejoin:round;stroke-miterlimit:10;" points="
			114.703,130.248 116.624,136.158 122.839,136.158 117.811,139.811 119.731,145.722 114.703,142.069 109.676,145.722 
			111.596,139.811 106.568,136.158 112.783,136.158 		"/>
		<polygon style="fill:none;stroke:#263238;stroke-linecap:round;stroke-linejoin:round;stroke-miterlimit:10;" points="
			136.321,130.248 138.241,136.158 144.456,136.158 139.428,139.811 141.348,145.722 136.321,142.069 131.293,145.722 
			133.213,139.811 128.185,136.158 134.4,136.158 		"/>
		<polygon style="fill:none;stroke:#263238;stroke-linecap:round;stroke-linejoin:round;stroke-miterlimit:10;" points="
			157.938,130.248 159.858,136.158 166.073,136.158 161.045,139.811 162.966,145.722 157.938,142.069 152.91,145.722 
			154.83,139.811 149.803,136.158 156.017,136.158 		"/>
	</g>
</g>
<g id="Device">
	<g>
		<g>
			<path style="fill:#263238;stroke:#263238;stroke-linecap:round;stroke-linejoin:round;stroke-miterlimit:10;" d="M380.135,386.3
				v51.74c0,6.039-4.896,10.935-10.935,10.935h-87.238c-6.039,0-10.935-4.896-10.935-10.935V386.3h-15.941v53.731
				c0,7.888,6.395,14.283,14.283,14.283h112.424c7.888,0,14.283-6.395,14.283-14.283V386.3H380.135z"/>
			<path style="fill:#FFFFFF;stroke:#263238;stroke-linecap:round;stroke-linejoin:round;stroke-miterlimit:10;" d="M393.456,386.3
				v51.74c0,6.039-4.896,10.935-10.935,10.935h-97.57c-6.039,0-10.935-4.896-10.935-10.935V386.3h-5.609v53.731
				c0,7.888,6.395,14.283,14.283,14.283h102.092c7.888,0,14.283-6.395,14.283-14.283V386.3H393.456z"/>
			
				<rect x="211.245" y="453.891" style="fill:#263238;stroke:#263238;stroke-linecap:round;stroke-linejoin:round;stroke-miterlimit:10;" width="225.469" height="7.163"/>
			
				<rect x="266.902" y="453.891" style="fill:#FFFFFF;stroke:#263238;stroke-linecap:round;stroke-linejoin:round;stroke-miterlimit:10;" width="169.811" height="7.163"/>
		</g>
		<g>
			<path style="fill:#263238;stroke:#263238;stroke-linecap:round;stroke-linejoin:round;stroke-miterlimit:10;" d="
				M499.725,394.505H151.639c-4.706,0-8.521-3.815-8.521-8.521V120.23c0-4.706,3.815-8.521,8.521-8.521h348.086
				c4.706,0,8.521,3.815,8.521,8.521v265.754C508.246,390.69,504.431,394.505,499.725,394.505z"/>
			<path style="fill:#92E3A9;stroke:#263238;stroke-linecap:round;stroke-linejoin:round;stroke-miterlimit:10;" d="
				M507.779,394.505H159.693c-4.706,0-8.521-3.815-8.521-8.521V120.23c0-4.706,3.815-8.521,8.521-8.521h348.086
				c4.706,0,8.521,3.815,8.521,8.521v265.754C516.3,390.69,512.485,394.505,507.779,394.505z"/>
			<path style="fill:#FFFFFF;stroke:#263238;stroke-linecap:round;stroke-linejoin:round;stroke-miterlimit:10;" d="
				M509.408,367.299H158.064V125.568c0-4.706,3.815-8.521,8.521-8.521h334.303c4.706,0,8.521,3.815,8.521,8.521V367.299z"/>
		</g>
	</g>
</g>
<g id="Chart">
	<g>
		<path style="fill:#92E3A9;" d="M459.314,160.846c-6.142-15.272-21.852-24.429-38.152-22.135
			c-54.827,7.716-216.493,31.82-220.059,48.227c-4.297,19.764-12.03,134.051,6.015,138.347
			c18.045,4.297,264.664,14.608,273.257-7.734C486.881,300.635,477.623,206.373,459.314,160.846z"/>
		<path style="opacity:0.7;fill:#FFFFFF;" d="M459.314,160.846c-6.142-15.272-21.852-24.429-38.152-22.135
			c-54.827,7.716-216.493,31.82-220.059,48.227c-4.297,19.764-12.03,134.051,6.015,138.347
			c18.045,4.297,264.664,14.608,273.257-7.734C486.881,300.635,477.623,206.373,459.314,160.846z"/>
	</g>
	<g>
		<g>
			
				<ellipse transform="matrix(0.9951 -0.0989 0.0989 0.9951 -18.8807 37.5007)" style="fill:#FFFFFF;stroke:#263238;stroke-linecap:round;stroke-linejoin:round;stroke-miterlimit:10;" cx="368.669" cy="209.12" rx="20.493" ry="20.493"/>
			<path style="fill:#FFFFFF;stroke:#263238;stroke-linecap:round;stroke-linejoin:round;stroke-miterlimit:10;" d="
				M356.839,222.533c2.261-4.217,6.71-7.085,11.829-7.085c4.937,0,9.251,2.667,11.58,6.64"/>
			<path style="fill:#263238;stroke:#263238;stroke-linecap:round;stroke-linejoin:round;stroke-miterlimit:10;" d="
				M363.797,205.333c0,2.339-0.69,4.236-1.54,4.236c-0.851,0-1.54-1.896-1.54-4.236c0-2.339,0.69-4.236,1.54-4.236
				C363.107,201.097,363.797,202.994,363.797,205.333z"/>
			<path style="fill:#263238;stroke:#263238;stroke-linecap:round;stroke-linejoin:round;stroke-miterlimit:10;" d="
				M375.349,205.333c0,2.339-0.69,4.236-1.54,4.236c-0.851,0-1.54-1.896-1.54-4.236c0-2.339,0.69-4.236,1.54-4.236
				C374.66,201.097,375.349,202.994,375.349,205.333z"/>
		</g>
		<g>
			
				<ellipse transform="matrix(0.3875 -0.9219 0.9219 0.3875 46.0822 405.6483)" style="fill:#FFFFFF;stroke:#263238;stroke-linecap:round;stroke-linejoin:round;stroke-miterlimit:10;" cx="328.314" cy="168.145" rx="20.493" ry="20.493"/>
			<path style="fill:#FFFFFF;stroke:#263238;stroke-linecap:round;stroke-linejoin:round;stroke-miterlimit:10;" d="
				M339.894,172.879c-2.261,4.217-6.71,7.084-11.83,7.084c-4.937,0-9.251-2.667-11.58-6.64"/>
			<path style="fill:#263238;stroke:#263238;stroke-linecap:round;stroke-linejoin:round;stroke-miterlimit:10;" d="
				M323.442,164.358c0,2.339-0.69,4.236-1.54,4.236c-0.851,0-1.54-1.896-1.54-4.236s0.69-4.236,1.54-4.236
				C322.753,160.122,323.442,162.019,323.442,164.358z"/>
			<path style="fill:#263238;stroke:#263238;stroke-linecap:round;stroke-linejoin:round;stroke-miterlimit:10;" d="
				M334.995,164.358c0,2.339-0.69,4.236-1.54,4.236c-0.851,0-1.54-1.896-1.54-4.236s0.69-4.236,1.54-4.236
				C334.305,160.122,334.995,162.019,334.995,164.358z"/>
		</g>
		<g>
			
				<ellipse transform="matrix(0.3875 -0.9219 0.9219 0.3875 -41.8601 415.1909)" style="fill:#FFFFFF;stroke:#263238;stroke-linecap:round;stroke-linejoin:round;stroke-miterlimit:10;" cx="291.524" cy="239.097" rx="20.493" ry="20.493"/>
			<path style="fill:#263238;stroke:#263238;stroke-linecap:round;stroke-linejoin:round;stroke-miterlimit:10;" d="
				M286.653,235.311c0,2.339-0.69,4.236-1.54,4.236s-1.54-1.896-1.54-4.236c0-2.339,0.69-4.236,1.54-4.236
				S286.653,232.972,286.653,235.311z"/>
			<path style="fill:#263238;stroke:#263238;stroke-linecap:round;stroke-linejoin:round;stroke-miterlimit:10;" d="
				M298.205,235.311c0,2.339-0.69,4.236-1.54,4.236c-0.851,0-1.54-1.896-1.54-4.236c0-2.339,0.69-4.236,1.54-4.236
				C297.515,231.075,298.205,232.972,298.205,235.311z"/>
			
				<line style="fill:none;stroke:#263238;stroke-linecap:round;stroke-linejoin:round;stroke-miterlimit:10;" x1="281.814" y1="227.081" x2="288.831" y2="231.546"/>
			
				<line style="fill:none;stroke:#263238;stroke-linecap:round;stroke-linejoin:round;stroke-miterlimit:10;" x1="299.994" y1="227.081" x2="292.977" y2="231.546"/>
			
				<line style="fill:none;stroke:#263238;stroke-linecap:round;stroke-linejoin:round;stroke-miterlimit:10;" x1="288.512" y1="247.813" x2="293.934" y2="247.813"/>
		</g>
		<g>
			
				<rect x="277.467" y="267.09" style="fill:#ADADAD;stroke:#263238;stroke-linecap:round;stroke-linejoin:round;stroke-miterlimit:10;" width="25.849" height="81.016"/>
			
				<rect x="315.021" y="195.396" style="fill:#92E3A9;stroke:#263238;stroke-linecap:round;stroke-linejoin:round;stroke-miterlimit:10;" width="25.849" height="152.709"/>
			
				<rect x="353.062" y="234.901" style="fill:#263238;stroke:#263238;stroke-linecap:round;stroke-linejoin:round;stroke-miterlimit:10;" width="25.849" height="113.204"/>
		</g>
	</g>
</g>
<g id="Stars_1">
	<g>
		<polygon style="fill:#263238;" points="287.727,122.059 289.647,127.969 295.862,127.969 290.834,131.622 292.754,137.533 
			287.727,133.88 282.699,137.533 284.619,131.622 279.591,127.969 285.806,127.969 		"/>
		<polygon style="fill:#263238;" points="309.344,122.059 311.264,127.969 317.479,127.969 312.451,131.622 314.371,137.533 
			309.344,133.88 304.316,137.533 306.236,131.622 301.208,127.969 307.423,127.969 		"/>
		<polygon style="fill:#263238;" points="330.961,122.059 332.881,127.969 339.096,127.969 334.068,131.622 335.989,137.533 
			330.961,133.88 325.933,137.533 327.853,131.622 322.826,127.969 329.04,127.969 		"/>
		<polygon style="fill:#263238;" points="352.578,122.059 354.498,127.969 360.713,127.969 355.685,131.622 357.606,137.533 
			352.578,133.88 347.55,137.533 349.471,131.622 344.443,127.969 350.658,127.969 		"/>
		<polygon style="fill:#263238;" points="374.195,122.059 376.115,127.969 382.33,127.969 377.302,131.622 379.223,137.533 
			374.195,133.88 369.167,137.533 371.088,131.622 366.06,127.969 372.275,127.969 		"/>
	</g>
	<g>
		<polygon style="fill:#263238;" points="175.739,266.674 177.659,272.584 183.874,272.584 178.846,276.237 180.766,282.148 
			175.739,278.495 170.711,282.148 172.631,276.237 167.604,272.584 173.818,272.584 		"/>
		<polygon style="fill:#263238;" points="197.356,266.674 199.276,272.584 205.491,272.584 200.463,276.237 202.384,282.148 
			197.356,278.495 192.328,282.148 194.248,276.237 189.221,272.584 195.435,272.584 		"/>
		<polygon style="opacity:0.2;fill:#263238;" points="218.973,266.674 220.893,272.584 227.108,272.584 222.08,276.237 
			224.001,282.148 218.973,278.495 213.945,282.148 215.866,276.237 210.838,272.584 217.053,272.584 		"/>
		<polygon style="opacity:0.2;fill:#263238;" points="240.59,266.674 242.51,272.584 248.725,272.584 243.697,276.237 
			245.618,282.148 240.59,278.495 235.562,282.148 237.483,276.237 232.455,272.584 238.67,272.584 		"/>
		<polygon style="opacity:0.2;fill:#263238;" points="262.207,266.674 264.128,272.584 270.342,272.584 265.315,276.237 
			267.235,282.148 262.207,278.495 257.18,282.148 259.1,276.237 254.072,272.584 260.287,272.584 		"/>
	</g>
	<g>
		<polygon style="fill:#263238;" points="397.82,223.28 399.74,229.19 405.955,229.19 400.927,232.843 402.848,238.754 
			397.82,235.101 392.792,238.754 394.712,232.843 389.685,229.19 395.899,229.19 		"/>
		<polygon style="fill:#263238;" points="419.437,223.28 421.357,229.19 427.572,229.19 422.544,232.843 424.465,238.754 
			419.437,235.101 414.409,238.754 416.329,232.843 411.302,229.19 417.516,229.19 		"/>
		<polygon style="fill:#263238;" points="441.054,223.28 442.974,229.19 449.189,229.19 444.161,232.843 446.082,238.754 
			441.054,235.101 436.026,238.754 437.947,232.843 432.919,229.19 439.134,229.19 		"/>
		<polygon style="opacity:0.2;fill:#263238;" points="462.671,223.28 464.592,229.19 470.806,229.19 465.779,232.843 
			467.699,238.754 462.671,235.101 457.643,238.754 459.564,232.843 454.536,229.19 460.751,229.19 		"/>
		<polygon style="opacity:0.2;fill:#263238;" points="484.288,223.28 486.209,229.19 492.423,229.19 487.396,232.843 
			489.316,238.754 484.288,235.101 479.26,238.754 481.181,232.843 476.153,229.19 482.368,229.19 		"/>
	</g>
	<path style="fill:#263238;stroke:#263238;stroke-linecap:round;stroke-linejoin:round;stroke-miterlimit:10;" d="M451.158,255.682"
		/>
</g>
<g id="Character_1_">
	<g>
		<polygon style="fill:#FFFFFF;stroke:#263238;stroke-linecap:round;stroke-linejoin:round;stroke-miterlimit:10;" points="
			622.448,405.464 620.836,435.413 611.851,434.492 608.625,406.616 		"/>
		<path style="fill:#263238;stroke:#263238;stroke-linecap:round;stroke-linejoin:round;stroke-miterlimit:10;" d="M624.522,432.649
			l-18.891,0.23l0.23,5.299c0,0-2.304-6.451-2.534-2.995c-0.23,3.456,1.843,8.294,1.613,9.215c-0.23,0.922-0.922,3.686-8.754,6.681
			c-7.833,2.995-9.906,4.147-8.985,5.76c0.922,1.613,6.22,3.686,14.053,3.686s13.823-2.995,13.823-2.995l0.23,2.534l9.215-0.23
			c0,0,1.613-3.456,0.922-7.833c-0.691-4.377-1.613-8.294-1.382-9.676S624.522,432.649,624.522,432.649z"/>
		<polygon style="fill:#FFFFFF;stroke:#263238;stroke-linecap:round;stroke-linejoin:round;stroke-miterlimit:10;" points="
			597.567,405.003 603.096,437.717 612.772,437.717 615.767,404.542 		"/>
		<path style="fill:#263238;stroke:#263238;stroke-linecap:round;stroke-linejoin:round;stroke-miterlimit:10;" d="M617.841,432.649
			l-18.891,0.23l0.23,5.299c0,0-2.304-6.451-2.534-2.995c-0.23,3.456,1.843,8.294,1.613,9.215c-0.23,0.922-0.921,3.686-8.754,6.681
			c-7.833,2.995-9.906,4.147-8.985,5.76c0.922,1.613,4.93,4.216,12.763,4.216s14.465-2.275,14.465-2.275l0.879,1.61l9.215-0.23
			c0,0,1.613-3.781,0.922-8.158s-1.613-8.294-1.382-9.676S617.841,432.649,617.841,432.649z"/>
		<path style="fill:#263238;stroke:#263238;stroke-linecap:round;stroke-linejoin:round;stroke-miterlimit:10;" d="M577.524,314.694
			l-2.765,93.304c0,0,14.744,2.304,28.106,2.534c13.362,0.23,31.562-4.147,31.562-4.147l-7.142-96.76l-49.762-1.152V314.694z"/>
		<path style="fill:#FFFFFF;stroke:#263238;stroke-linecap:round;stroke-linejoin:round;stroke-miterlimit:10;" d="M594.813,229.857
			c0,0-5.097,8.253-6.797,14.564c-1.699,6.311-5.583,69.666-5.583,69.666l43.936,0.243c0,0-2.185-50.975-7.039-67.724
			c-4.855-16.749-8.612-19.615-8.612-19.615L594.813,229.857z"/>
		<g>
			<path style="fill:#FFFFFF;stroke:#263238;stroke-linecap:round;stroke-linejoin:round;stroke-miterlimit:10;" d="
				M593.452,188.897c0,0-2.412,3.015-3.819,5.226c-1.407,2.211-3.417,3.417-4.824,3.618c-1.407,0.201-2.814,1.206-1.608,3.417
				c1.206,2.211,2.412,3.618,2.412,3.618s-0.402,9.848,1.407,10.451c1.809,0.603,7.838-0.201,7.838-0.201l0.402,10.049l13.265-2.814
				l-0.402-13.064c0,0,1.005-8.642-5.025-14.672C597.07,188.495,593.452,188.897,593.452,188.897z"/>
			<path style="fill:#263238;" d="M592.159,197.265c-0.104,1.01-0.617,1.784-1.147,1.73c-0.53-0.054-0.875-0.917-0.771-1.927
				c0.104-1.01,0.617-1.784,1.147-1.73C591.918,195.393,592.263,196.255,592.159,197.265z"/>
			<path style="fill:none;stroke:#263238;stroke-linecap:round;stroke-linejoin:round;stroke-miterlimit:10;" d="M587.577,205.452
				c0,0,1.75,0.875,4.5-0.625"/>
			<path style="fill:none;stroke:#263238;stroke-linecap:round;stroke-linejoin:round;stroke-miterlimit:10;" d="M591.328,192.951
				c0,0,1.375-0.875,2.625,1.125"/>
		</g>
		<path style="fill:#FFFFFF;stroke:#263238;stroke-linecap:round;stroke-linejoin:round;stroke-miterlimit:10;" d="M605.011,218.839
			c0,0-14.673,3.261-14.673,4.728s1.467,8.152,1.467,8.152l18.912-4.728l-1.793-8.967L605.011,218.839z"/>
		<g>
			<path style="fill:#92E3A9;stroke:#263238;stroke-linecap:round;stroke-linejoin:round;stroke-miterlimit:10;" d="
				M611.319,222.332c0,0-22.817,17.477-26.701,28.4c-3.884,10.923-10.68,66.753-8.496,66.996c2.185,0.243,16.264,3.641,30.585,3.156
				c14.322-0.485,26.944-4.127,27.672-4.612c0.728-0.486-1.214-16.992-4.612-39.081c-3.398-22.089-9.467-37.382-12.137-43.207
				C614.96,228.158,611.319,222.332,611.319,222.332z"/>
			<polyline style="fill:none;stroke:#263238;stroke-linecap:round;stroke-linejoin:round;stroke-miterlimit:10;" points="
				608.557,232.977 600.345,242.167 593.854,243.642 593.854,247.182 583.233,264 			"/>
			
				<line style="fill:none;stroke:#263238;stroke-linecap:round;stroke-linejoin:round;stroke-miterlimit:10;" x1="612.737" y1="228.3" x2="610.647" y2="230.638"/>
		</g>
		<g>
			<g>
				<path style="fill:#ADADAD;stroke:#263238;stroke-linecap:round;stroke-linejoin:round;stroke-miterlimit:10;" d="
					M594.932,331.31c0,0-5.261-0.139-5.914,1.493c-0.653,1.633-2.196,11.162-2.196,11.162l3.701,0.081c0,0,0.789-8.433,1.605-9.413
					c0.816-0.98,12.764-1.527,13.907-0.711c1.143,0.816,1.47,9.634,1.47,9.634h4.245c0,0-1.469-8.654-3.266-11.103
					C606.688,330.004,594.932,331.31,594.932,331.31z"/>
				<path style="fill:#ADADAD;stroke:#263238;stroke-linecap:round;stroke-linejoin:round;stroke-miterlimit:10;" d="
					M620.325,342.903c0,0-39.188,0-41.637,0.163c-2.449,0.163-4.082,1.959-4.082,4.245c0,2.286-2.776,34.942-1.633,36.085
					c1.143,1.143,45.556,2.449,48.985,2.286s5.062-2.939,5.062-4.572c0-1.633-2.449-35.595-2.939-36.902
					C623.591,342.903,620.325,342.903,620.325,342.903z"/>
				<path style="fill:#ADADAD;stroke:#263238;stroke-linecap:round;stroke-linejoin:round;stroke-miterlimit:10;" d="
					M617.757,352.288c2.249-2.431,3.824-4.258,4.022-4.705c0.721-1.623,0.541-2.705,0.541-2.705"/>
				<path style="fill:#ADADAD;stroke:#263238;stroke-linecap:round;stroke-linejoin:round;stroke-miterlimit:10;" d="
					M576.335,346.862c0,0,19.006,23.964,22.433,23.062c2.122-0.559,10.167-8.374,16.155-14.628"/>
			</g>
			<g>
				<path style="fill:#FFFFFF;stroke:#263238;stroke-linecap:round;stroke-linejoin:round;stroke-miterlimit:10;" d="M593.47,326.26
					c0,0-1.808,10.026-0.164,11.013c1.644,0.986,4.109-0.493,4.109-0.493s1.151,0.329,2.301,0.164
					c1.151-0.164,3.123-1.151,3.123-1.151s0.986,0.658,1.808-0.329c0.822-0.986,0.822-8.547,0.822-8.547L593.47,326.26z"/>
				<path style="fill:#92E3A9;stroke:#263238;stroke-linecap:round;stroke-linejoin:round;stroke-miterlimit:10;" d="
					M606.524,241.503c0,0-7.768,1.214-11.409,8.253c-3.641,7.039-2.973,46.125-2.973,46.125l-0.243,32.042l14.322,0.485
					l11.651-64.811"/>
			</g>
		</g>
		<path style="fill:#263238;stroke:#263238;stroke-linecap:round;stroke-linejoin:round;stroke-miterlimit:10;" d="M620.987,185.681
			c0,0-3.417-5.025-7.436-6.432c-4.02-1.407-23.917-1.005-24.319,1.407c-0.402,2.412,0,6.03,3.618,10.853
			c3.618,4.824,7.838,11.054,7.838,11.054s1.005,5.829,1.608,9.245c0.603,3.417-0.201,10.853-0.201,10.853s4.221,0.603,12.461,0.201
			s11.858-2.01,11.858-2.01s-2.01-2.211-2.412-12.059C623.6,198.947,620.987,185.681,620.987,185.681z"/>
		<path style="fill:#263238;stroke:#263238;stroke-linecap:round;stroke-linejoin:round;stroke-miterlimit:10;" d="M619.045,178.792
			c0,0-6.23,5.628-3.819,11.657s5.226,10.451,9.245,10.25c4.02-0.201,7.637-2.412,11.054-7.035
			c3.417-4.623,3.216-10.652-1.809-14.069C628.693,176.179,620.05,177.184,619.045,178.792z"/>
		<path style="fill:#FFFFFF;stroke:#263238;stroke-linecap:round;stroke-linejoin:round;stroke-miterlimit:10;" d="M598.477,204.976
			c0,0,4.623-5.427,6.432-2.814c1.809,2.613-0.804,6.432-2.412,7.236c-1.608,0.804-1.608,0.804-1.608,0.804l-1.608-0.804"/>
	</g>
</g>
<g id="Floor_1_">
	
		<line style="fill:none;stroke:#263238;stroke-linecap:round;stroke-linejoin:round;stroke-miterlimit:10;" x1="25.246" y1="461.055" x2="716.092" y2="461.055"/>
</g>
</svg>
